<svg xmlns="http://www.w3.org/2000/svg" width="749.585" height="412.48" viewBox="0 0 749.585 412.48">
  <g id="Group_56165" data-name="Group 56165" transform="translate(-120.389 -74.088)">
    <g id="Group_56164" data-name="Group 56164" transform="translate(563.391 321.916)">
      <path id="Path_36331" data-name="Path 36331" d="M431.722,284.2l-1.05-8.844-7.792-.073-1.052,8.917H411.47l7.646-47.274h15.612l7.451,47.274Zm-7.841-17.151h5.838l-1.587-14.023-1-7.208h-.661l-.953,7.208Z" transform="translate(-411.47 -236.927)" fill="#fff"/>
      <path id="Path_36332" data-name="Path 36332" d="M443.443,275.7h10.163v8.5H433.4V236.927h10.042Z" transform="translate(-400.024 -236.927)" fill="#fff"/>
      <path id="Path_36333" data-name="Path 36333" d="M458.535,270.837V284.2H448.493V236.927h13.9c3.981,0,7.062,1.1,9.234,3.324s3.275,5.35,3.275,9.381v8.013a13.3,13.3,0,0,1-3.446,9.576,11.924,11.924,0,0,1-9.014,3.616Zm2.37-8.5c2.345,0,3.738-1.686,3.738-4.544v-7.964c0-2.858-1.417-4.4-3.738-4.4h-2.37v16.905Z" transform="translate(-392.147 -236.927)" fill="#fff"/>
      <path id="Path_36334" data-name="Path 36334" d="M484.337,236.927H494.4V284.2H484.337V264.338h-5.716V284.2H468.579V236.927h10.042v18.91h5.716Z" transform="translate(-381.664 -236.927)" fill="#fff"/>
      <path id="Path_36335" data-name="Path 36335" d="M507.57,284.2l-1.05-8.844-7.792-.073-1.052,8.917h-10.36l7.648-47.274h15.612l7.45,47.274Zm-7.841-17.151h5.838l-1.587-14.023-1-7.208h-.661l-.953,7.208Z" transform="translate(-371.884 -236.927)" fill="#fff"/>
      <path id="Path_36336" data-name="Path 36336" d="M423.486,316.054H434.8v8.5H413.444V277.283H434.65v8.5H423.486v10.5H433.8V304.5h-10.31Zm2.663-44.585H431.6l-5.789,4.3h-3Z" transform="translate(-410.44 -218.899)" fill="#fff"/>
      <path id="Path_36337" data-name="Path 36337" d="M444.134,275.289c3.983,0,7.06,1.1,9.284,3.324s3.324,5.5,3.324,9.87v21.083c0,4.275-1.125,7.5-3.348,9.7q-3.369,3.3-9.259,3.3H430.575V275.289Zm2.4,12.241c0-2.345-1.271-3.738-3.2-3.738h-2.712V314.06h2.663c1.978,0,3.249-1.417,3.249-3.762Z" transform="translate(-401.499 -216.905)" fill="#fff"/>
      <path id="Path_36338" data-name="Path 36338" d="M451.159,275.289H461.2v47.274H451.159Z" transform="translate(-390.755 -216.905)" fill="#fff"/>
      <path id="Path_36339" data-name="Path 36339" d="M482.134,283.792H471.555v10.5h9.772V302.6h-9.772v19.96h-10.04V275.289h20.619Z" transform="translate(-385.35 -216.905)" fill="#fff"/>
      <path id="Path_36340" data-name="Path 36340" d="M477.249,275.289h10.042v47.274H477.249Z" transform="translate(-377.139 -216.905)" fill="#fff"/>
      <path id="Path_36341" data-name="Path 36341" d="M513.45,301.4v9.552c0,8.136-4.569,12.363-12.9,12.363-8.673,0-13.315-4.911-13.315-14.268V289.237c0-9.357,4.642-14.317,13.315-14.317,8.4,0,12.9,4.129,12.9,12.411v8.648l-9.847-.049v-8.893c0-2.272-1.147-3.713-3-3.713-1.782,0-3.1,1.441-3.1,3.713v24.211c0,2.272,1.245,3.714,3.1,3.714s3-1.441,3-3.714V301.4Z" transform="translate(-371.927 -217.098)" fill="#fff"/>
      <path id="Path_36342" data-name="Path 36342" d="M525.936,322.563l-1.05-8.844-7.792-.073-1.052,8.917H505.684l7.646-47.274h15.612l7.45,47.274Zm-7.841-17.15h5.838l-1.587-14.023-1-7.208h-.661l-.953,7.208Z" transform="translate(-362.298 -216.905)" fill="#fff"/>
      <path id="Path_36343" data-name="Path 36343" d="M550.39,275.289v8.5h-7.916v38.771h-9.993V283.792h-7.964v-8.5Z" transform="translate(-352.468 -216.905)" fill="#fff"/>
      <path id="Path_36344" data-name="Path 36344" d="M543.526,275.289h10.042v47.274H543.526Z" transform="translate(-342.547 -216.905)" fill="#fff"/>
      <path id="Path_36345" data-name="Path 36345" d="M580.29,289.237v19.812c0,9.357-4.741,14.268-13.461,14.268-8.6,0-13.315-4.911-13.315-14.268V289.237c0-9.357,4.715-14.317,13.315-14.317C575.622,274.92,580.29,279.831,580.29,289.237Zm-10.262-2.2c0-2.272-1.245-3.713-3.1-3.713s-3.15,1.441-3.15,3.713v24.211c0,2.224,1.32,3.714,3.1,3.714,1.931,0,3.152-1.441,3.152-3.714Z" transform="translate(-337.335 -217.098)" fill="#fff"/>
      <path id="Path_36346" data-name="Path 36346" d="M592.014,299.084l-.513-10.8v-13h9.552v47.274h-9.8L584.1,296.349h-.513l.464,10.259v15.954H574.5V275.289H585l6.451,23.8Z" transform="translate(-326.383 -216.905)" fill="#fff"/>
      <path id="Path_36347" data-name="Path 36347" d="M621.371,290.678h-9.894v-4.4a2.706,2.706,0,0,0-3.055-3.055,2.652,2.652,0,0,0-2.956,2.663v3.981c0,1.735.734,2.542,2.589,3.225l5.059,1.441a15.154,15.154,0,0,1,6.718,3.835c1.49,1.638,2.248,4.08,2.248,7.281v5.3a11.868,11.868,0,0,1-3.567,9.089c-2.394,2.224-5.643,3.322-9.748,3.322-4.2,0-7.45-.953-9.724-2.883a9.878,9.878,0,0,1-3.444-7.989v-6.158h10.017v5.4a3.045,3.045,0,0,0,3.15,3.274,2.966,2.966,0,0,0,3.054-3.054V306.9c0-1.735-1.074-2.933-3.2-3.616l-4.642-1.246a11.824,11.824,0,0,1-6.523-3.762c-1.393-1.733-2.1-4.178-2.1-7.354v-4.445a11.051,11.051,0,0,1,3.37-8.307c2.223-2.173,5.5-3.249,9.8-3.249,4.1,0,7.279.953,9.5,2.858a9.626,9.626,0,0,1,3.347,7.7Z" transform="translate(-315.497 -217.098)" fill="#fff"/>
      <path id="Path_36348" data-name="Path 36348" d="M439.126,329.04h-9.894v-4.4a2.707,2.707,0,0,0-3.054-3.055,2.652,2.652,0,0,0-2.956,2.663v3.981c0,1.735.732,2.542,2.589,3.225l5.057,1.441a15.137,15.137,0,0,1,6.718,3.835c1.491,1.638,2.249,4.08,2.249,7.281v5.3a11.87,11.87,0,0,1-3.567,9.089q-3.591,3.333-9.748,3.322c-4.2,0-7.451-.953-9.724-2.883a9.877,9.877,0,0,1-3.444-7.988V344.7h10.017v5.4a3.045,3.045,0,0,0,3.15,3.274,2.966,2.966,0,0,0,3.054-3.054v-5.056c0-1.735-1.074-2.933-3.2-3.616l-4.642-1.246a11.823,11.823,0,0,1-6.523-3.762c-1.393-1.735-2.1-4.178-2.1-7.354v-4.446a11.053,11.053,0,0,1,3.371-8.307c2.224-2.173,5.5-3.249,9.8-3.249,4.1,0,7.279.953,9.5,2.858a9.626,9.626,0,0,1,3.347,7.7Z" transform="translate(-410.616 -197.076)" fill="#fff"/>
      <path id="Path_36349" data-name="Path 36349" d="M443.863,337.682v10.7h-9.722v-10.7Z" transform="translate(-399.638 -184.341)" fill="#fff"/>
      <path id="Path_36350" data-name="Path 36350" d="M462.9,360.925l-1.05-8.844-7.792-.075-1.052,8.918h-10.36l7.648-47.274h15.612l7.45,47.274Zm-7.841-17.15H460.9l-1.587-14.023-1-7.208h-.66l-.953,7.208Z" transform="translate(-395.197 -196.883)" fill="#fff"/>
      <path id="Path_36351" data-name="Path 36351" d="M474.657,337.682v10.7h-9.722v-10.7Z" transform="translate(-383.566 -184.341)" fill="#fff"/>
    </g>
    <g id="Groupe_56156" data-name="Groupe 56156" transform="translate(120.389 74.088)">
      <g id="Calque_1" data-name="Calque 1">
        <path id="Rectangle_70" data-name="Rectangle 70" d="M155.317,109.015V451.638H497.941V109.015H155.317M120.389,74.088h412.48v412.48H120.389Z" transform="translate(-120.389 -74.088)" fill="#fff"/>
      </g>
      <g id="Calque_2" data-name="Calque 2" transform="translate(118.375 124.069)">
        <path id="Tracé_36305" data-name="Tracé 36305" d="M319.019,194.1c4.345-11.259,8.186-22.654,12.324-33.988a1.333,1.333,0,0,1,1.484-1.046c11.889.113,23.765-.16,35.648.122-8.331,25.573-22.13,50.723-27.713,76.524,11.06,26.92,22.219,53.8,33.134,80.77-12.516.161-25.014-.009-37.531.087a1.682,1.682,0,0,1-1.88-1.321c-5.153-13.805-10.138-27.6-15.426-41.364-30.195,76.011-113.508,50.85-120.025-23.813-5.305-39.479,13.746-88.392,57.839-93.548C285.36,151.34,308.038,168.819,319.019,194.1Zm-83.042,44c-.148,16.043,4.26,33.8,16.345,45.338,14.081,14.493,35.26,5.893,42.37-11.095,5.881-11.923,12.016-24.482,14.6-37.435-6.546-15.075-11.416-32.015-23.4-43.808-31.37-22.562-51.82,19.482-49.921,47Z" transform="translate(-198.169 -155.61)" fill="#fff"/>
      </g>
    </g>
  </g>
</svg>
