<svg xmlns="http://www.w3.org/2000/svg" width="412.478" height="412.48" viewBox="0 0 412.478 412.48">
  <g id="Group_56178" data-name="Group 56178" transform="translate(-782.761 -221.26)">
    <g id="Group_56176" data-name="Group 56176" transform="translate(745.666 183.106)">
      <path id="Rectangle_70" data-name="Rectangle 70" d="M155.317,587.058V929.68H497.939V587.058H155.317M120.389,552.13H532.867V964.61H120.389Z" transform="translate(-83.294 -513.976)" fill="#fff"/>
      <path id="Tracé_36305" data-name="Tracé 36305" d="M319.018,672.141c4.345-11.259,8.186-22.652,12.324-33.987a1.333,1.333,0,0,1,1.484-1.044c11.889.111,23.765-.16,35.648.12-8.331,25.574-22.13,50.724-27.713,76.523,11.06,26.921,22.218,53.8,33.134,80.771-12.516.161-25.014-.009-37.53.087a1.681,1.681,0,0,1-1.88-1.323c-5.153-13.8-10.137-27.6-15.426-41.363-30.195,76.01-113.507,50.85-120.024-23.815-5.305-39.477,13.746-88.39,57.839-93.546C285.359,629.383,308.037,646.862,319.018,672.141Zm-83.042,44c-.148,16.042,4.26,33.8,16.345,45.338,14.081,14.493,35.26,5.893,42.37-11.1,5.881-11.923,12.016-24.482,14.6-37.435-6.546-15.073-11.416-32.013-23.4-43.807-31.37-22.562-51.82,19.48-49.92,47Z" transform="translate(-42.699 -471.428)" fill="#fff"/>
    </g>
  </g>
</svg>
