<svg xmlns="http://www.w3.org/2000/svg" width="307.249" height="186.75" viewBox="0 0 307.249 186.75">
  <g id="Group_56172" data-name="Group 56172" transform="translate(-120.389 -552.13)">
    <g id="Group_56162" data-name="Group 56162" transform="translate(322.231 637.902)">
      <path id="Path_36306" data-name="Path 36306" d="M400.489,852.519l-.476-4-3.528-.033-.475,4.037h-4.69l3.462-21.4h7.068l3.374,21.4Zm-3.551-7.765h2.643l-.719-6.349-.453-3.263h-.3l-.431,3.263Z" transform="translate(-391.319 -831.117)" fill="#fff"/>
      <path id="Path_36307" data-name="Path 36307" d="M417.8,848.67h4.6v3.849h-9.147v-21.4H417.8Z" transform="translate(-398.139 -831.117)" fill="#fff"/>
      <path id="Path_36308" data-name="Path 36308" d="M432.888,846.469v6.051h-4.546v-21.4h6.294a5.579,5.579,0,0,1,4.181,1.5,5.824,5.824,0,0,1,1.482,4.247V840.5a6.022,6.022,0,0,1-1.56,4.336,5.4,5.4,0,0,1-4.081,1.636Zm1.073-3.849c1.062,0,1.692-.763,1.692-2.057v-3.606c0-1.294-.642-1.991-1.692-1.991h-1.073v7.654Z" transform="translate(-402.832 -831.117)" fill="#fff"/>
      <path id="Path_36309" data-name="Path 36309" d="M455.562,831.117h4.557v21.4h-4.557v-8.992h-2.588v8.992h-4.546v-21.4h4.546v8.561h2.588Z" transform="translate(-409.077 -831.117)" fill="#fff"/>
      <path id="Path_36310" data-name="Path 36310" d="M476.335,852.519l-.475-4-3.528-.033-.476,4.037h-4.69l3.462-21.4H477.7l3.373,21.4Zm-3.55-7.765h2.643l-.719-6.349-.453-3.263h-.3l-.431,3.263Z" transform="translate(-414.904 -831.117)" fill="#fff"/>
      <path id="Path_36311" data-name="Path 36311" d="M402.53,879.92a3.7,3.7,0,0,1,2.809,3.894v2.334a4.414,4.414,0,0,1-1.4,3.44A5.6,5.6,0,0,1,400,890.881h-6.7v-21.4h6.857A5.317,5.317,0,0,1,403.7,870.6a3.819,3.819,0,0,1,1.306,3.075v2.234c0,2.058-.83,3.33-2.478,3.8Zm-4.69-6.725v4.956h1.4a1.217,1.217,0,0,0,1.294-1.36v-2.224A1.2,1.2,0,0,0,399.2,873.2Zm0,8.373v5.6h1.228a1.488,1.488,0,0,0,1.7-1.67v-2.312c0-1.073-.564-1.615-1.681-1.615Z" transform="translate(-391.933 -843.046)" fill="#fff"/>
      <path id="Path_36312" data-name="Path 36312" d="M420.638,890.881l-.475-4-3.529-.033-.475,4.037h-4.69l3.462-21.4H422l3.373,21.4Zm-3.55-7.765h2.643l-.719-6.349-.454-3.263h-.3l-.431,3.263Z" transform="translate(-397.584 -843.046)" fill="#fff"/>
      <path id="Path_36313" data-name="Path 36313" d="M442.015,869.479v3.849h-3.584v17.553h-4.524V873.328H430.3v-3.849Z" transform="translate(-403.441 -843.046)" fill="#fff"/>
      <path id="Path_36314" data-name="Path 36314" d="M449.311,869.479h4.546v21.4h-4.546Z" transform="translate(-409.352 -843.046)" fill="#fff"/>
      <path id="Path_36315" data-name="Path 36315" d="M468.427,883.99l.431-3.937,1.493-10.574H476.9v21.4h-4.324l.022-7.72.21-6.637h-.276l-2.1,14.357h-4.4L464.058,876.5h-.277l.21,6.637v7.742h-4.324v-21.4h6.614l1.426,10.574.476,3.937Z" transform="translate(-412.572 -843.046)" fill="#fff"/>
      <path id="Path_36316" data-name="Path 36316" d="M493.016,887.032h5.122v3.849H488.47v-21.4h9.6v3.849h-5.055v4.757h4.668V881.8h-4.668Z" transform="translate(-421.529 -843.046)" fill="#fff"/>
      <path id="Path_36317" data-name="Path 36317" d="M513.533,880.252l-.232-4.889v-5.884h4.324v21.4H513.19l-3.241-11.868h-.232l.209,4.646v7.223H505.6v-21.4h4.756l2.921,10.773Z" transform="translate(-426.856 -843.046)" fill="#fff"/>
      <path id="Path_36318" data-name="Path 36318" d="M536.759,869.479v3.849h-3.584v17.553h-4.524V873.328h-3.606v-3.849Z" transform="translate(-432.902 -843.046)" fill="#fff"/>
      <path id="Path_36319" data-name="Path 36319" d="M405.9,919.806h-2.146v4.6q0,1.061,1,1.062h1.15v3.65h-2.212c-2.2,0-3.54-.774-3.993-2.334-.785,1.692-1.769,2.61-3.573,2.61a3.819,3.819,0,0,1-3.019-1.261,4.749,4.749,0,0,1-1.129-3.3V922.5a5.259,5.259,0,0,1,.763-2.92,3.815,3.815,0,0,1,1.836-1.57,3.885,3.885,0,0,1-2.235-3.872v-2.234a4.042,4.042,0,0,1,1.471-3.2,6.208,6.208,0,0,1,4.192-1.272c3.926.033,5.751,1.781,5.751,4.712v2.986h-4.214v-2.643a1.225,1.225,0,0,0-1.383-1.383,1.315,1.315,0,0,0-1.471,1.383v2.356a1.309,1.309,0,0,0,1.493,1.471h7.72Zm-6.382,4.1v-4.1H398.5c-1.338,0-2.013.564-2.024,1.7v2.334c0,1.184.575,1.836,1.549,1.836C399.023,925.679,399.521,925.093,399.521,923.909Z" transform="translate(-391.524 -854.85)" fill="#fff"/>
      <path id="Path_36320" data-name="Path 36320" d="M432.7,919.461v4.325c0,3.683-2.068,5.6-5.84,5.6-3.928,0-6.028-2.223-6.028-6.459v-8.971c0-4.236,2.1-6.481,6.028-6.481,3.8,0,5.84,1.869,5.84,5.618v3.916l-4.457-.022v-4.026c0-1.029-.52-1.681-1.361-1.681-.807,0-1.4.652-1.4,1.681v10.961c0,1.029.564,1.681,1.4,1.681s1.361-.653,1.361-1.681v-4.457Z" transform="translate(-400.495 -854.86)" fill="#fff"/>
      <path id="Path_36321" data-name="Path 36321" d="M453.133,913.953v8.971c0,4.236-2.146,6.459-6.095,6.459-3.893,0-6.028-2.223-6.028-6.459v-8.971c0-4.236,2.135-6.481,6.028-6.481C451.02,907.472,453.133,909.695,453.133,913.953Zm-4.646-.995c0-1.029-.564-1.681-1.4-1.681s-1.426.652-1.426,1.681v10.961a1.5,1.5,0,0,0,1.4,1.681c.874,0,1.427-.653,1.427-1.681Z" transform="translate(-406.771 -854.86)" fill="#fff"/>
      <path id="Path_36322" data-name="Path 36322" d="M469.925,918.614l-.232-4.889v-5.884h4.324v21.4h-4.436l-3.241-11.868h-.232l.21,4.646v7.223h-4.324v-21.4h4.756l2.92,10.773Z" transform="translate(-413.296 -854.975)" fill="#fff"/>
      <path id="Path_36323" data-name="Path 36323" d="M494.631,914.606h-4.479v-1.991a1.226,1.226,0,0,0-1.383-1.383,1.2,1.2,0,0,0-1.338,1.206v1.8c0,.785.331,1.15,1.172,1.46l2.29.653a6.851,6.851,0,0,1,3.041,1.736,4.757,4.757,0,0,1,1.018,3.3v2.4a5.373,5.373,0,0,1-1.615,4.114,6.227,6.227,0,0,1-4.413,1.5,6.619,6.619,0,0,1-4.4-1.3,4.471,4.471,0,0,1-1.56-3.617V921.7H487.5v2.445a1.379,1.379,0,0,0,1.427,1.481,1.342,1.342,0,0,0,1.382-1.382v-2.29c0-.785-.486-1.327-1.448-1.637l-2.1-.564a5.362,5.362,0,0,1-2.953-1.7,5.189,5.189,0,0,1-.952-3.329V912.7a5,5,0,0,1,1.526-3.76,6.1,6.1,0,0,1,4.435-1.471,6.43,6.43,0,0,1,4.3,1.294,4.357,4.357,0,0,1,1.515,3.484Z" transform="translate(-419.781 -854.86)" fill="#fff"/>
      <path id="Path_36324" data-name="Path 36324" d="M508.077,925.394H513.2v3.849h-9.667v-21.4h9.6v3.849h-5.055v4.756h4.668v3.716h-4.668Z" transform="translate(-426.212 -854.975)" fill="#fff"/>
      <path id="Path_36325" data-name="Path 36325" d="M520.662,907.841h4.546v21.4h-4.546Z" transform="translate(-431.539 -854.975)" fill="#fff"/>
      <path id="Path_36326" data-name="Path 36326" d="M535.564,925.394h4.6v3.849h-9.148v-21.4h4.546Z" transform="translate(-434.759 -854.975)" fill="#fff"/>
      <path id="Path_36327" data-name="Path 36327" d="M404.736,952.968h-4.479v-1.991a1.225,1.225,0,0,0-1.382-1.383,1.2,1.2,0,0,0-1.339,1.206v1.8c0,.785.332,1.15,1.172,1.46l2.29.653a6.855,6.855,0,0,1,3.041,1.736,4.761,4.761,0,0,1,1.018,3.3v2.4a5.373,5.373,0,0,1-1.615,4.114,6.227,6.227,0,0,1-4.413,1.5,6.62,6.62,0,0,1-4.4-1.305,4.472,4.472,0,0,1-1.559-3.617v-2.787H397.6V962.5a1.378,1.378,0,0,0,1.426,1.482,1.342,1.342,0,0,0,1.383-1.382v-2.29c0-.785-.486-1.327-1.449-1.637l-2.1-.564a5.364,5.364,0,0,1-2.953-1.7,5.189,5.189,0,0,1-.951-3.329v-2.013a5,5,0,0,1,1.526-3.76,6.1,6.1,0,0,1,4.436-1.471,6.429,6.429,0,0,1,4.3,1.294,4.357,4.357,0,0,1,1.515,3.484Z" transform="translate(-391.828 -866.789)" fill="#fff"/>
      <path id="Path_36328" data-name="Path 36328" d="M420.461,967.605l-.475-4-3.528-.033-.476,4.037h-4.69l3.462-21.4h7.068l3.373,21.4Zm-3.55-7.765h2.643l-.719-6.349-.453-3.263h-.3l-.431,3.263Z" transform="translate(-397.53 -866.904)" fill="#fff"/>
      <path id="Path_36329" data-name="Path 36329" d="M445.523,967.605h-4.646l-1.184-7.112h-1.925v7.112h-4.546V946.2h6.272c3.628,0,5.6,1.947,5.6,5.475v2.787a5.6,5.6,0,0,1-1.472,4.037Zm-7.732-10.74h.863c1.194,0,1.792-.719,1.792-2.146v-2.61q0-2.058-1.792-2.057h-.863Z" transform="translate(-404.349 -866.904)" fill="#fff"/>
      <path id="Path_36330" data-name="Path 36330" d="M458.353,963.756h4.6v3.849h-9.148V946.2h4.546Z" transform="translate(-410.75 -866.904)" fill="#fff"/>
    </g>
    <g id="Groupe_56156" data-name="Groupe 56156" transform="translate(120.389 552.13)">
      <g id="Calque_1" data-name="Calque 1">
        <path id="Rectangle_70" data-name="Rectangle 70" d="M136.2,567.944V723.065H291.325V567.944H136.2M120.389,552.13H307.138V738.88H120.389Z" transform="translate(-120.389 -552.13)" fill="#fff"/>
      </g>
      <g id="Calque_2" data-name="Calque 2" transform="translate(53.594 56.173)">
        <path id="Tracé_36305" data-name="Tracé 36305" d="M252.883,651.078c1.967-5.1,3.706-10.256,5.58-15.388a.6.6,0,0,1,.672-.473c5.383.05,10.759-.072,16.139.054-3.772,11.579-10.019,22.965-12.547,34.646,5.007,12.189,10.059,24.357,15,36.569-5.667.073-11.325,0-16.992.039a.761.761,0,0,1-.851-.6c-2.333-6.25-4.59-12.5-6.984-18.727-13.671,34.414-51.39,23.022-54.341-10.782-2.4-17.873,6.223-40.018,26.186-42.353C237.644,631.719,247.912,639.633,252.883,651.078ZM215.286,671c-.067,7.263,1.929,15.3,7.4,20.527,6.375,6.562,15.964,2.668,19.183-5.024,2.662-5.4,5.44-11.084,6.61-16.948-2.964-6.824-5.168-14.494-10.593-19.833-14.2-10.215-23.461,8.82-22.6,21.279Z" transform="translate(-198.169 -633.652)" fill="#fff"/>
      </g>
    </g>
  </g>
</svg>
