<svg xmlns="http://www.w3.org/2000/svg" width="376.182" height="252" viewBox="0 0 376.182 252">
  <path id="Path_99" data-name="Path 99" d="M37.473-13.324,25.306-58.215H5.487V30.968H23.508V.871l-.876-19.358H23.6L37.1,30.968H55.587V-58.215H37.566V-33.7l.968,20.372ZM90.384-59.275c-16.223,0-25.119,9.356-25.119,27.008V5.111c0,17.652,8.9,26.916,25.119,26.916,16.454,0,25.4-9.264,25.4-26.916V-32.267C115.779-50.011,106.976-59.275,90.384-59.275ZM96.422,9.26c0,4.286-2.3,7.006-5.946,7.006-3.365,0-5.853-2.811-5.853-7.006V-36.415c0-4.286,2.443-7.006,5.946-7.006s5.853,2.719,5.853,7.006Zm77.2-48.624c0-6.084-2.12-10.923-6.314-14.518s-10.186-5.392-17.929-5.392c-8.112,0-14.288,2.028-18.482,6.13a20.84,20.84,0,0,0-6.36,15.67v8.388c0,5.992,1.337,10.6,3.964,13.873s6.729,5.669,12.306,7.1l8.757,2.351c4.01,1.291,6.038,3.549,6.038,6.821V10.6a5.6,5.6,0,0,1-5.761,5.761c-3.733,0-5.946-2.673-5.946-6.176V0H125V11.61q0,9.61,6.5,15.071c4.286,3.641,10.416,5.439,18.344,5.439,7.743,0,13.873-2.074,18.39-6.268,4.471-4.194,6.729-9.909,6.729-17.145v-10c0-6.038-1.429-10.647-4.24-13.735-2.858-3.088-7.1-5.485-12.675-7.236l-9.54-2.719c-3.5-1.291-4.885-2.811-4.885-6.084v-7.513c0-2.9,2.074-5.024,5.577-5.024,3.825,0,5.761,1.936,5.761,5.761v8.3h18.666ZM30.883,103.667l-2.4,18.251h-1.2l-2.351-18.251L19.545,52.923H-.182L13.23,142.106H42.082L55.4,52.83H35.86Zm80.057,38.439L96.883,52.923H67.431L53.006,142.106H72.547l1.982-16.823,14.7.138,1.982,16.684ZM79.507,83.3l1.8-13.6h1.244l1.89,13.6,3,26.455H76.419Zm55.4-30.373H115.964v89.183H154.08V126.066H134.906Zm43.324,51.344h19.45V88.78H178.23V68.962h21.063V52.923H159.288v89.183H199.57V126.066H178.23Zm59.778-51.344v67.936c0,4.378-1.844,6.545-5.485,6.545-3.134,0-5.392-2.258-5.392-6.545V52.923H208.281v68.811c0,14.057,8.434,21.524,24.151,21.524,15.624,0,24.52-7.513,24.52-21.708V52.923Zm72.867,51.251c4.1-4.286,6.13-9.909,6.13-16.823V75.737c0-14.7-8.2-22.814-23.321-22.814H267.552v89.183h18.943V112.47h8.02l4.932,29.635H318.8ZM286.587,68.962h3.595q7.466,0,7.466,8.573V88.411c0,5.946-2.489,8.941-7.466,8.941h-3.595Zm88.077,2.811c0-6.084-2.12-10.923-6.314-14.518s-10.186-5.392-17.929-5.392c-8.112,0-14.288,2.028-18.482,6.13a20.839,20.839,0,0,0-6.36,15.67v8.388c0,5.992,1.337,10.6,3.964,13.873s6.729,5.669,12.306,7.1l8.757,2.351c4.01,1.291,6.038,3.549,6.038,6.821v9.541a5.6,5.6,0,0,1-5.761,5.761c-3.733,0-5.946-2.673-5.946-6.176V111.133h-18.9v11.615q0,9.61,6.5,15.071c4.286,3.641,10.416,5.439,18.344,5.439,7.743,0,13.873-2.074,18.39-6.268C373.742,132.8,376,127.08,376,119.844v-10c0-6.038-1.429-10.647-4.24-13.735-2.858-3.088-7.1-5.485-12.675-7.236l-9.541-2.719c-3.5-1.29-4.885-2.811-4.885-6.084V72.557c0-2.9,2.074-5.024,5.577-5.024,3.825,0,5.761,1.936,5.761,5.761v8.3h18.666Z" transform="translate(0.182 59.275)"/>
  <rect id="Rectangle_38" data-name="Rectangle 38" width="176" height="14" transform="translate(0.182 238)"/>
</svg>
