<svg xmlns="http://www.w3.org/2000/svg" width="137.142" height="188.692" viewBox="0 0 137.142 188.692">
  <g id="Group_56100" data-name="Group 56100" transform="translate(0)">
    <path id="Path_36268" data-name="Path 36268" d="M383.947,165.276l-.126-.3-9.4-22.228-.01-.019L364.88,120.2l-1.8-4.261-7.731-18.29v0l-11.36-26.861H324.917l9.531,22.547,9.56,22.609,1.8,4.261,9.541,22.547v0l9.4,22.228.125.3,9.536,22.556,30.3,71.64H423.78l-39.833-94.192Z" transform="translate(-286.778 -70.781)" fill="#fff"/>
    <path id="Path_36269" data-name="Path 36269" d="M394.75,120.2l9.536,22.532v0l30.432-71.954H415.646l-20.9,49.407Z" transform="translate(-297.576 -70.781)" fill="#fff"/>
    <path id="Path_36270" data-name="Path 36270" d="M393.082,70.781H374.01l-1.819,4.3,9.541,22.551Z" transform="translate(-294.088 -70.781)" fill="#fff"/>
    <path id="Path_36271" data-name="Path 36271" d="M334.6,266.584l-9.536,22.547h19.072l1.7-4.015L336.3,262.564Z" transform="translate(-286.801 -100.438)" fill="#fff"/>
    <path id="Path_36272" data-name="Path 36272" d="M289.342,93.337l9.526,22.527,0,.024,9.536,22.527.01.014v.014l11.225,26.533.125.3,0,0,9.526,22.551,0-.014,9.536,22.537,0,0,0,.01,1.544,3.658,7.939,18.744.058.135v0l11.235,26.562h19.072l-20.766-49.1v0l-9.541-22.556-9.526-22.527v0l0-.014-.121-.285L329.3,142.72,319.779,120.2l-1.8-4.261-.019-.053.01-.019-9.541-22.551-.01.014-9.531-22.547H279.8Z" transform="translate(-279.801 -70.781)" fill="#fff"/>
    <path id="Path_36273" data-name="Path 36273" d="M279.812,280.588l.121.294h19.072l.01,0v-.01l19.057-45.074,1.7-4.015-9.531-22.537,0-.014Z" transform="translate(-279.803 -92.19)" fill="#fff"/>
  </g>
</svg>
