<svg xmlns="http://www.w3.org/2000/svg" width="1122.168" height="272.721" viewBox="0 0 1122.168 272.721">
  <g id="Group_56098" data-name="Group 56098" transform="translate(-162.845 -689.857)">
    <g id="Group_56096" data-name="Group 56096" transform="translate(442.028 689.857)">
      <path id="Path_36253" data-name="Path 36253" d="M509.3,962.578l-6.059-51.021-44.961-.423-6.06,51.444H392.464L436.58,689.857h90.059l42.985,272.721Zm-45.239-98.941h33.684l-9.161-80.9-5.778-41.577H479l-5.5,41.577Z" transform="translate(-392.464 -689.857)" fill="#fff"/>
      <path id="Path_36254" data-name="Path 36254" d="M608.739,913.53h58.632v49.047H550.813V689.857h57.926Z" transform="translate(-358.284 -689.857)" fill="#fff"/>
      <path id="Path_36255" data-name="Path 36255" d="M717.707,885.484v77.094H659.781V689.857h80.194c22.975,0,40.734,6.343,53.278,19.17s18.883,30.866,18.883,54.121v46.228c0,22.972-6.624,41.294-19.872,55.248-13.389,13.952-30.726,20.859-52.006,20.859Zm13.671-49.046c13.531,0,21.563-9.728,21.563-26.217V764.276c0-16.489-8.174-25.371-21.563-25.371H717.707v97.533Z" transform="translate(-334.763 -689.857)" fill="#fff"/>
      <path id="Path_36256" data-name="Path 36256" d="M895.708,689.857h58.067V962.578H895.708V847.993H862.726V962.578H804.8V689.857h57.924V798.946h32.981Z" transform="translate(-303.46 -689.857)" fill="#fff"/>
      <path id="Path_36257" data-name="Path 36257" d="M1056.924,962.578l-6.06-51.021-44.961-.423-6.059,51.444h-59.76L984.2,689.857h90.059l42.985,272.721Zm-45.241-98.941h33.685l-9.163-80.9-5.778-41.577h-3.808l-5.493,41.577Z" transform="translate(-274.259 -689.857)" fill="#fff"/>
    </g>
    <g id="Group_56097" data-name="Group 56097" transform="translate(162.845 689.857)">
      <path id="Path_36258" data-name="Path 36258" d="M224.428,770.262,208.19,808.646l13.769,32.58.007.042,2.63,6.208,16.719-37.267-3.1-7.331-11.146-26.358v-.007Z" transform="translate(-153.058 -672.502)" fill="#fff"/>
      <path id="Path_36259" data-name="Path 36259" d="M340.85,826.433l-.182-.432-13.587-32.127-.014-.028-13.775-32.566-2.6-6.159-11.174-26.435v-.007L283.1,689.857H255.533l13.775,32.587,13.817,32.678,2.6,6.159,13.789,32.587v.007L313.1,826l.181.432,13.782,32.6,43.789,103.543h27.565L340.85,826.44Z" transform="translate(-142.839 -689.857)" fill="#fff"/>
      <path id="Path_36260" data-name="Path 36260" d="M325.71,761.281l13.783,32.566v.007l43.984-104H355.912L325.7,761.267Z" transform="translate(-127.692 -689.857)" fill="#fff"/>
      <path id="Path_36261" data-name="Path 36261" d="M333.232,689.857H305.667l-2.63,6.222,13.789,32.594Z" transform="translate(-132.585 -689.857)" fill="#fff"/>
      <path id="Path_36262" data-name="Path 36262" d="M269.464,888.391l-13.782,32.587h27.565l2.455-5.8L271.919,882.58Z" transform="translate(-142.806 -648.258)" fill="#fff"/>
      <path id="Path_36263" data-name="Path 36263" d="M333.313,891.6,319.523,859,305.755,826.44v-.007l-.007-.021-.174-.411-13.608-32.168L278.2,761.281l-2.6-6.159-.028-.077.014-.028-13.789-32.594-.014.021L248,689.857H220.417l-7.345,17.361-6.431,15.212-13.817,32.691L162.845,826l13.789,32.587L190.4,891.161l13.782,32.587,16.245,38.4.174.425H248.17l.014-.007v-.014l27.544-65.146,2.455-5.8-13.776-32.573-.007-.021-2.462,5.81-27.544,65.146-16.426-38.808-13.789-32.587v-.014L190.41,826l29.978-70.879.042-.091,6.431-15.212,7.345-17.361,13.768,32.559.007.035,13.782,32.559.014.021v.021L278,826l.181.432.007.007,13.768,32.594.007-.021,13.782,32.573-.007.007-.007.014,2.232,5.287,11.474,27.091.084.2v.007l16.238,38.39h27.565l-30.013-70.97Z" transform="translate(-162.845 -689.857)" fill="#fff"/>
    </g>
  </g>
</svg>
